<?xml version="1.0" encoding="UTF-8"?>
<svg version="1.1" viewBox="0 0 1180 1180" width="1280" height="1280" xmlns="http://www.w3.org/2000/svg">
<path transform="translate(564,208)" d="m0 0h44l37 4 26 5 30 8 25 9 20 9 16 8 20 11 21 14 16 12 16 13 16 15 14 14 9 11 12 14 13 18 10 16 12 21 13 27 11 29 8 28 6 28 4 31 1 15v36l-2 25-5 32-7 29-11 33-11 25-10 20-13 22-14 20-12 15-9 11-14 15-14 14-8 7-16 13-18 13-22 14-26 14-22 10-25 9-23 7-34 7-32 4-12 1h-38l-29-3-30-5-28-7-27-9-26-11-24-12-20-12-16-11-13-10-11-9-20-18-12-12-7-8-12-14-13-17-14-21-10-17-8-15-9-20-9-24-6-19-6-24-5-28-3-29v-47l3-29 5-28 8-31 10-28 11-25 9-17 11-19 8-12 13-18 14-17 14-15 19-19 22-18 15-11 15-10 26-15 25-12 26-10 23-7 21-5 22-4 23-3z" fill="#FCFCFC"/>
<path transform="translate(573,384)" d="m0 0h26l17 2 16 3 21 6 24 10 16 9 16 11 13 11 18 18 13 17 8 13 8 16 7 16 7 24 4 25 1 17v14l-2 21-4 20-6 20-13 27-12 19-13 16-9 10-7 7-8 7-12 9-14 9-21 11-17 6-10 3-17 4-21 3h-25l-20-2-25-5-21-7-15-7-12-6-15-10-14-11-13-12-11-12-10-13-9-14-8-14-10-25-4-13-5-27-1-8v-33l3-21 5-21 7-19 9-19 9-15 14-19 7-8h2l2-4 4-4h2l1-3 11-9 15-11 17-10 23-10 24-7 23-4z" fill="#c552ec"/>
<path transform="translate(580,513)" d="m0 0h39l1 1 1 173-2 1h-44l-1-2v-128l-4 1-17 10-14 9h-4v-38l4-4 22-13 15-9z" fill="#221F24"/>
</svg>
